
Black Rain 1989 BluRay 1080p DTS x264-LoNeWolf

Encoded by Tequila-Bob a.k.a. bobnjeff a.k.a.LoNeWoLf

Source NTSC BluRay Disc

 
http://www.imdb.com/title/tt0096933/

Genres:Action | Crime | Drama | Thriller

Rated R for bloody violence throughout, and language.
 

Black Rain (I) (1989) 
  125 min  -  Action | Crime | Drama   -  22 September 1989 (USA) 
6.4/10 X  Users: 6.4/10 (16,336 votes) 89 reviews | Critics: 36 reviews 
Two New York cops get involved in a gang war between members of the Yakuza, the Japanese Mafia. They arrest one of their killers and are ordered to escort him back to Japan... See full summary » 


Director: Ridley Scott
Writers: Craig Bolotin, Warren Lewis
Stars:Michael Douglas, Andy Garcia and Ken Takakura

Storyline
Two New York cops get involved in a gang war between members of the Yakuza, the Japanese Mafia. They arrest one of their killers and are ordered to escort him back to Japan. In Japan, however, he manages to escape. As they try to track him down, they get deeper and deeper into the Japanese Mafia scene and they have to learn that they can only win by playing the game the Japanese way.


Cast
Cast overview, first billed only: 
  Michael Douglas  ...  Nick Conklin  
  Andy Garcia  ...  Charlie Vincent  
  Ken Takakura  ...  Masahiro  
  Kate Capshaw  ...  Joyce  
  Yûsaku Matsuda  ...  Sato  
  Shigeru Kôyama  ...  Ohashi (as Shigeru Koyama)  
  John Spencer  ...  Oliver  
  Guts Ishimatsu  ...  Katayama  
  Yûya Uchida  ...  Nashida  
  Tomisaburo Wakayama  ...  Sugai  
  Miyuki Ono  ...  Miyuki  
  Luis Guzmán  ...  Frankie (as Luis Guzman)  
  John Costelloe  ...  The Kid (as John A. Costelloe)  
  Stephen Root  ...  Berg  
  Richard Riehle  ...  Crown  

[img]http://torrent-stats.info/1a56/1c0b86be.png[/img]


Format : Matroska 
File size : 7.98 GiB 
Duration : 2h 5mn 
Overall bit rate : 9 116 Kbps 
Encoded date : UTC 2010-12-04 18:10:06 
Writing application : mkvmerge v4.4.0 ('Die Wiederkehr') built on Oct 31 2010 21:52:48 
Writing library : libebml v1.0.0 + libmatroska v1.0.0 

Video 
ID : 1 
Format : AVC 
Format/Info : Advanced Video Codec 
Format profile : High@L4.1 
Format settings, CABAC : Yes 
Format settings, ReFrames : 5 frames 
Muxing mode : Container profile=Unknown@4.1 
Codec ID : V_MPEG4/ISO/AVC 
Duration : 2h 5mn 
Bit rate : 7 575 Kbps 
Width : 1 920 pixels 
Height : 848 pixels 
Display aspect ratio : 2.25:1 
Frame rate : 23.976 fps 
Color space : YUV 
Chroma subsampling : 4:2:0 
Bit depth : 8 bits 
Scan type : Progressive 
Bits/(Pixel*Frame) : 0.194 
Stream size : 6.50 GiB (81%) 
Writing library : x264 core 98 r1649 c54c47d 
Encoding settings : cabac=1 / ref=6 / deblock=1:0:0 / analyse=0x3:0x133 / me=umh / subme=9 / psy=1 / psy_rd=1.00:0.15 / mixed_ref=1 / me_range=24 / chroma_me=1 / trellis=1 / 8x8dct=1 / cqm=0 / deadzone=21,11 / fast_pskip=1 / chroma_qp_offset=-3 / threads=6 / sliced_threads=0 / nr=0 / decimate=1 / interlaced=0 / constrained_intra=0 / bframes=4 / b_pyramid=1 / b_adapt=1 / b_bias=0 / direct=1 / weightb=1 / weightp=2 / keyint=250 / keyint_min=25 / scenecut=40 / intra_refresh=0 / rc_lookahead=50 / rc=2pass / mbtree=1 / bitrate=7575 / ratetol=1.0 / qcomp=0.60 / qpmin=10 / qpmax=51 / qpstep=4 / cplxblur=20.0 / qblur=0.5 / ip_ratio=1.40 / aq=1:1.50 
Language : English 

Audio 
ID : 2 
Format : DTS 
Format/Info : Digital Theater Systems 
Format profile : ES 
Codec ID : A_DTS 
Duration : 2h 5mn 
Bit rate mode : Constant 
Bit rate : 1 510 Kbps 
Channel(s) : 7 channels 
Channel positions : Front: L C R, Side: L R, Back: C, LFE 
Sampling rate : 48.0 KHz 
Bit depth : 24 bits 
Video delay : 10ms 
Stream size : 1.32 GiB (17%) 
Title : 3/2+1 
Language : English 

Text 
Language : English 
Language : English 
Language : English 
Language : French 
Language : French 
Language : Spanish 
Language : Spanish 

Menu & Chapters 27






See the full size 1920x848 PNG files at the link below
 
http://s1015.photobucket.com/albums/af279/tequila-bob/Black%20Rain%201989/

